<svg width="548" height="144" viewBox="0 0 548 144" fill="none" xmlns="http://www.w3.org/2000/svg">
<g clip-path="url(#clip0_818_134)">
<g clip-path="url(#clip1_818_134)">
<path d="M38.0469 50.8574L30.4482 71.8877H30.4736L25.9219 84.5469H25.874L18.123 106H0L29.709 27.667L38.0469 50.8574ZM87 106H68.877L61.1113 84.5469H36.9697L41.5215 71.8877H56.5293L43.8428 36.8418H43.832L37.418 19H53.957L87 106Z" fill="#4B6BB9"/>
</g>
<path d="M90.168 79.408C90.168 73.904 91.288 69.104 93.528 65.008C95.768 60.848 98.872 57.648 102.84 55.408C106.808 53.104 111.352 51.952 116.472 51.952C123.064 51.952 128.504 53.616 132.792 56.944C137.144 60.208 140.056 64.816 141.528 70.768H127.032C126.264 68.464 124.952 66.672 123.096 65.392C121.304 64.048 119.064 63.376 116.376 63.376C112.536 63.376 109.496 64.784 107.256 67.6C105.016 70.352 103.896 74.288 103.896 79.408C103.896 84.464 105.016 88.4 107.256 91.216C109.496 93.968 112.536 95.344 116.376 95.344C121.816 95.344 125.368 92.912 127.032 88.048H141.528C140.056 93.808 137.144 98.384 132.792 101.776C128.44 105.168 123 106.864 116.472 106.864C111.352 106.864 106.808 105.744 102.84 103.504C98.872 101.2 95.768 98 93.528 93.904C91.288 89.744 90.168 84.912 90.168 79.408ZM217.422 52.048C223.95 52.048 229.198 54.064 233.166 58.096C237.198 62.064 239.214 67.632 239.214 74.8V106H225.774V76.624C225.774 72.464 224.718 69.296 222.606 67.12C220.494 64.88 217.614 63.76 213.966 63.76C210.318 63.76 207.406 64.88 205.23 67.12C203.118 69.296 202.062 72.464 202.062 76.624V106H188.622V76.624C188.622 72.464 187.566 69.296 185.454 67.12C183.342 64.88 180.462 63.76 176.814 63.76C173.102 63.76 170.158 64.88 167.982 67.12C165.87 69.296 164.814 72.464 164.814 76.624V106H151.374V52.816H164.814V59.248C166.542 57.008 168.75 55.248 171.438 53.968C174.19 52.688 177.198 52.048 180.462 52.048C184.622 52.048 188.334 52.944 191.598 54.736C194.862 56.464 197.39 58.96 199.182 62.224C200.91 59.152 203.406 56.688 206.67 54.832C209.998 52.976 213.582 52.048 217.422 52.048ZM301.408 78.256C301.408 80.176 301.28 81.904 301.024 83.44H262.144C262.464 87.28 263.808 90.288 266.176 92.464C268.544 94.64 271.456 95.728 274.912 95.728C279.904 95.728 283.456 93.584 285.568 89.296H300.064C298.528 94.416 295.584 98.64 291.232 101.968C286.88 105.232 281.536 106.864 275.2 106.864C270.08 106.864 265.472 105.744 261.376 103.504C257.344 101.2 254.176 97.968 251.872 93.808C249.632 89.648 248.512 84.848 248.512 79.408C248.512 73.904 249.632 69.072 251.872 64.912C254.112 60.752 257.248 57.552 261.28 55.312C265.312 53.072 269.952 51.952 275.2 51.952C280.256 51.952 284.768 53.04 288.736 55.216C292.768 57.392 295.872 60.496 298.048 64.528C300.288 68.496 301.408 73.072 301.408 78.256ZM287.488 74.416C287.424 70.96 286.176 68.208 283.744 66.16C281.312 64.048 278.336 62.992 274.816 62.992C271.488 62.992 268.672 64.016 266.368 66.064C264.128 68.048 262.752 70.832 262.24 74.416H287.488ZM389.677 38.992V106H376.237V77.488H347.533V106H334.093V38.992H347.533V66.544H376.237V38.992H389.677ZM426.521 106.864C421.401 106.864 416.793 105.744 412.697 103.504C408.601 101.2 405.369 97.968 403.001 93.808C400.697 89.648 399.545 84.848 399.545 79.408C399.545 73.968 400.729 69.168 403.097 65.008C405.529 60.848 408.825 57.648 412.985 55.408C417.145 53.104 421.785 51.952 426.905 51.952C432.025 51.952 436.665 53.104 440.825 55.408C444.985 57.648 448.249 60.848 450.617 65.008C453.049 69.168 454.265 73.968 454.265 79.408C454.265 84.848 453.017 89.648 450.521 93.808C448.089 97.968 444.761 101.2 440.537 103.504C436.377 105.744 431.705 106.864 426.521 106.864ZM426.521 95.152C428.953 95.152 431.225 94.576 433.337 93.424C435.513 92.208 437.241 90.416 438.521 88.048C439.801 85.68 440.441 82.8 440.441 79.408C440.441 74.352 439.097 70.48 436.409 67.792C433.785 65.04 430.553 63.664 426.713 63.664C422.873 63.664 419.641 65.04 417.017 67.792C414.457 70.48 413.177 74.352 413.177 79.408C413.177 84.464 414.425 88.368 416.921 91.12C419.481 93.808 422.681 95.152 426.521 95.152ZM484.476 106.864C480.124 106.864 476.22 106.096 472.764 104.56C469.308 102.96 466.556 100.816 464.508 98.128C462.524 95.44 461.436 92.464 461.244 89.2H474.78C475.036 91.248 476.028 92.944 477.756 94.288C479.548 95.632 481.756 96.304 484.38 96.304C486.94 96.304 488.924 95.792 490.332 94.768C491.804 93.744 492.54 92.432 492.54 90.832C492.54 89.104 491.644 87.824 489.852 86.992C488.124 86.096 485.34 85.136 481.5 84.112C477.532 83.152 474.268 82.16 471.708 81.136C469.212 80.112 467.036 78.544 465.18 76.432C463.388 74.32 462.492 71.472 462.492 67.888C462.492 64.944 463.324 62.256 464.988 59.824C466.716 57.392 469.148 55.472 472.284 54.064C475.484 52.656 479.228 51.952 483.516 51.952C489.852 51.952 494.908 53.552 498.684 56.752C502.46 59.888 504.54 64.144 504.924 69.52H492.06C491.868 67.408 490.972 65.744 489.372 64.528C487.836 63.248 485.756 62.608 483.132 62.608C480.7 62.608 478.812 63.056 477.468 63.952C476.188 64.848 475.548 66.096 475.548 67.696C475.548 69.488 476.444 70.864 478.236 71.824C480.028 72.72 482.812 73.648 486.588 74.608C490.428 75.568 493.596 76.56 496.092 77.584C498.588 78.608 500.732 80.208 502.524 82.384C504.38 84.496 505.34 87.312 505.404 90.832C505.404 93.904 504.54 96.656 502.812 99.088C501.148 101.52 498.716 103.44 495.516 104.848C492.38 106.192 488.7 106.864 484.476 106.864ZM532.085 63.856V89.584C532.085 91.376 532.501 92.688 533.333 93.52C534.229 94.288 535.701 94.672 537.749 94.672H543.989V106H535.541C524.213 106 518.549 100.496 518.549 89.488V63.856H512.213V52.816H518.549V39.664H532.085V52.816H543.989V63.856H532.085Z" fill="#4B6BB9"/>
</g>
<defs>
<clipPath id="clip0_818_134">
<rect width="548" height="144" fill="white"/>
</clipPath>
<clipPath id="clip1_818_134">
<rect width="87" height="87" fill="white" transform="translate(0 19)"/>
</clipPath>
</defs>
</svg>
