<svg width="544" height="88" viewBox="0 0 544 88" fill="none" xmlns="http://www.w3.org/2000/svg">
<g clip-path="url(#clip0_818_134)">
<g clip-path="url(#clip1_818_134)">
<path d="M38.0469 31.8574L30.4482 52.8877H30.4736L25.9219 65.5469H25.874L18.123 87H0L29.709 8.66699L38.0469 31.8574ZM87 87H68.877L61.1113 65.5469H36.9697L41.5215 52.8877H56.5293L43.8428 17.8418H43.832L37.418 0H53.957L87 87Z" fill="#4B6BB9"/>
</g>
<path d="M90.168 60.408C90.168 54.904 91.288 50.104 93.528 46.008C95.768 41.848 98.872 38.648 102.84 36.408C106.808 34.104 111.352 32.952 116.472 32.952C123.064 32.952 128.504 34.616 132.792 37.944C137.144 41.208 140.056 45.816 141.528 51.768H127.032C126.264 49.464 124.952 47.672 123.096 46.392C121.304 45.048 119.064 44.376 116.376 44.376C112.536 44.376 109.496 45.784 107.256 48.6C105.016 51.352 103.896 55.288 103.896 60.408C103.896 65.464 105.016 69.4 107.256 72.216C109.496 74.968 112.536 76.344 116.376 76.344C121.816 76.344 125.368 73.912 127.032 69.048H141.528C140.056 74.808 137.144 79.384 132.792 82.776C128.44 86.168 123 87.864 116.472 87.864C111.352 87.864 106.808 86.744 102.84 84.504C98.872 82.2 95.768 79 93.528 74.904C91.288 70.744 90.168 65.912 90.168 60.408ZM217.422 33.048C223.95 33.048 229.198 35.064 233.166 39.096C237.198 43.064 239.214 48.632 239.214 55.8V87H225.774V57.624C225.774 53.464 224.718 50.296 222.606 48.12C220.494 45.88 217.614 44.76 213.966 44.76C210.318 44.76 207.406 45.88 205.23 48.12C203.118 50.296 202.062 53.464 202.062 57.624V87H188.622V57.624C188.622 53.464 187.566 50.296 185.454 48.12C183.342 45.88 180.462 44.76 176.814 44.76C173.102 44.76 170.158 45.88 167.982 48.12C165.87 50.296 164.814 53.464 164.814 57.624V87H151.374V33.816H164.814V40.248C166.542 38.008 168.75 36.248 171.438 34.968C174.19 33.688 177.198 33.048 180.462 33.048C184.622 33.048 188.334 33.944 191.598 35.736C194.862 37.464 197.39 39.96 199.182 43.224C200.91 40.152 203.406 37.688 206.67 35.832C209.998 33.976 213.582 33.048 217.422 33.048ZM301.408 59.256C301.408 61.176 301.28 62.904 301.024 64.44H262.144C262.464 68.28 263.808 71.288 266.176 73.464C268.544 75.64 271.456 76.728 274.912 76.728C279.904 76.728 283.456 74.584 285.568 70.296H300.064C298.528 75.416 295.584 79.64 291.232 82.968C286.88 86.232 281.536 87.864 275.2 87.864C270.08 87.864 265.472 86.744 261.376 84.504C257.344 82.2 254.176 78.968 251.872 74.808C249.632 70.648 248.512 65.848 248.512 60.408C248.512 54.904 249.632 50.072 251.872 45.912C254.112 41.752 257.248 38.552 261.28 36.312C265.312 34.072 269.952 32.952 275.2 32.952C280.256 32.952 284.768 34.04 288.736 36.216C292.768 38.392 295.872 41.496 298.048 45.528C300.288 49.496 301.408 54.072 301.408 59.256ZM287.488 55.416C287.424 51.96 286.176 49.208 283.744 47.16C281.312 45.048 278.336 43.992 274.816 43.992C271.488 43.992 268.672 45.016 266.368 47.064C264.128 49.048 262.752 51.832 262.24 55.416H287.488ZM389.677 19.992V87H376.237V58.488H347.533V87H334.093V19.992H347.533V47.544H376.237V19.992H389.677ZM426.521 87.864C421.401 87.864 416.793 86.744 412.697 84.504C408.601 82.2 405.369 78.968 403.001 74.808C400.697 70.648 399.545 65.848 399.545 60.408C399.545 54.968 400.729 50.168 403.097 46.008C405.529 41.848 408.825 38.648 412.985 36.408C417.145 34.104 421.785 32.952 426.905 32.952C432.025 32.952 436.665 34.104 440.825 36.408C444.985 38.648 448.249 41.848 450.617 46.008C453.049 50.168 454.265 54.968 454.265 60.408C454.265 65.848 453.017 70.648 450.521 74.808C448.089 78.968 444.761 82.2 440.537 84.504C436.377 86.744 431.705 87.864 426.521 87.864ZM426.521 76.152C428.953 76.152 431.225 75.576 433.337 74.424C435.513 73.208 437.241 71.416 438.521 69.048C439.801 66.68 440.441 63.8 440.441 60.408C440.441 55.352 439.097 51.48 436.409 48.792C433.785 46.04 430.553 44.664 426.713 44.664C422.873 44.664 419.641 46.04 417.017 48.792C414.457 51.48 413.177 55.352 413.177 60.408C413.177 65.464 414.425 69.368 416.921 72.12C419.481 74.808 422.681 76.152 426.521 76.152ZM484.476 87.864C480.124 87.864 476.22 87.096 472.764 85.56C469.308 83.96 466.556 81.816 464.508 79.128C462.524 76.44 461.436 73.464 461.244 70.2H474.78C475.036 72.248 476.028 73.944 477.756 75.288C479.548 76.632 481.756 77.304 484.38 77.304C486.94 77.304 488.924 76.792 490.332 75.768C491.804 74.744 492.54 73.432 492.54 71.832C492.54 70.104 491.644 68.824 489.852 67.992C488.124 67.096 485.34 66.136 481.5 65.112C477.532 64.152 474.268 63.16 471.708 62.136C469.212 61.112 467.036 59.544 465.18 57.432C463.388 55.32 462.492 52.472 462.492 48.888C462.492 45.944 463.324 43.256 464.988 40.824C466.716 38.392 469.148 36.472 472.284 35.064C475.484 33.656 479.228 32.952 483.516 32.952C489.852 32.952 494.908 34.552 498.684 37.752C502.46 40.888 504.54 45.144 504.924 50.52H492.06C491.868 48.408 490.972 46.744 489.372 45.528C487.836 44.248 485.756 43.608 483.132 43.608C480.7 43.608 478.812 44.056 477.468 44.952C476.188 45.848 475.548 47.096 475.548 48.696C475.548 50.488 476.444 51.864 478.236 52.824C480.028 53.72 482.812 54.648 486.588 55.608C490.428 56.568 493.596 57.56 496.092 58.584C498.588 59.608 500.732 61.208 502.524 63.384C504.38 65.496 505.34 68.312 505.404 71.832C505.404 74.904 504.54 77.656 502.812 80.088C501.148 82.52 498.716 84.44 495.516 85.848C492.38 87.192 488.7 87.864 484.476 87.864ZM532.085 44.856V70.584C532.085 72.376 532.501 73.688 533.333 74.52C534.229 75.288 535.701 75.672 537.749 75.672H543.989V87H535.541C524.213 87 518.549 81.496 518.549 70.488V44.856H512.213V33.816H518.549V20.664H532.085V33.816H543.989V44.856H532.085Z" fill="#4B6BB9"/>
</g>
<defs>
<clipPath id="clip0_818_134">
<rect width="544" height="88" fill="white"/>
</clipPath>
<clipPath id="clip1_818_134">
<rect width="87" height="87" fill="white"/>
</clipPath>
</defs>
</svg>
